{"title":"Great Grand Masti (2016) ~2CD DVDSCR x264 AAC - V2 -DDR","uid":15231071,"size":1558287505,"categoryP":"video","categoryS":"movies","magnet":"?xt=urn:btih:e1497f817d18a9091b499586acc3222c07eb48cc&amp;dn=Great+Grand+Masti+%282016%29+%7E2CD+DVDSCR+x264+AAC+-+V2+-DDR&amp;tr=udp%3A%2F%2Ftracker.leechers-paradise.org%3A6969&amp;tr=udp%3A%2F%2Fzer0day.ch%3A1337&amp;tr=udp%3A%2F%2Fopen.demonii.com%3A1337&amp;tr=udp%3A%2F%2Ftracker.coppersurfer.tk%3A6969&amp;tr=udp%3A%2F%2Fexodus.desync.com%3A6969","seeders":11,"leechers":9,"uploader":"SaM","files":3,"time":1467824443,"description":"*- Great Grand Masti -**\r\n- 2016 -\r\n** 1/3 DvDSCR Version 2 rip / x264 / AAC 2.0 **\r\n\r\n~* SCREENSHOTS *~ \r\n \nhttp://extraimago.com/image/akF4 \nhttp://extraimago.com/image/akFe \nhttp://extraimago.com/image/akFZ \nhttp://extraimago.com/image/akFK \nhttp://extraimago.com/image/akFJ \nhttp://extraimago.com/image/akF0 \nhttp://extraimago.com/image/akFz \nhttp://extraimago.com/image/akFU \nhttp://extraimago.com/image/akFM \nhttp://extraimago.com/image/akF9 \nhttp://extraimago.com/image/akF3 \nhttp://extraimago.com/image/akFb \nhttp://extraimago.com/image/akFh \nhttp://extraimago.com/image/akFd \nhttp://extraimago.com/image/akFI \nhttp://extraimago.com/image/akFl\r\n\r\n[ Specs ]\r\nGeneral\r\nSource = MP4 DUMP @ Munu\r\nFormat : Matroska\r\nFormat version : Version 4 / Version 2\r\nFile size : 1.43 GiB\r\nDuration : 2h 14mn\r\nOverall bit rate : 1 528 Kbps\r\nEncoded date : UTC 2016-07-06 08:26:35\r\nWriting application : mkvmerge v9.2.0 ('Photograph') 64bit\r\nWriting library : libebml v1.3.3 + libmatroska v1.4.4\r\n\r\nVideo\r\nID : 1\r\nFormat : AVC\r\nFormat/Info : Advanced Video Codec\r\nFormat profile :   \r\nFormat settings, CABAC : Yes\r\nFormat settings, ReFrames : 5 frames\r\nCodec ID : V_MPEG4/ISO/AVC\r\nDuration : 2h 14mn\r\nBit rate : 1 401 Kbps\r\nWidth : 720 pixels\r\nHeight : 304 pixels\r\nDisplay aspect ratio : 2.35:1\r\nFrame rate mode : Constant\r\nFrame rate : 25.000 fps\r\ncolor space : YUV\r\nChroma subsampling : 4:2:0\r\nBit depth : 8 bits\r\nScan type : Progressive\r\nBits/(Pixel*Frame) : 0.256\r\nStream size : 1.31 GiB (92%)\r\nLanguage : English\r\nDefault : Yes\r\nForced : No\r\n\r\nAudio\r\nID : 2\r\nFormat : AAC\r\nFormat/Info : Advanced Audio Codec\r\nFormat profile : LC\r\nCodec ID : A_AAC\r\nDuration : 2h 14mn\r\nBit rate : 125 Kbps\r\nChannel(s) : 2 channels\r\nChannel positions : Front: L R\r\nSampling rate : 44.1 KHz\r\nFrame rate : 43.066 fps (1024 spf)\r\nCompression mode : Lossy\r\nStream size : 120 MiB (8%)\r\nLanguage : Hindi\r\nDefault : Yes\r\nForced : No\r\n\r\n\r\nChapters: None on source\r\nSample: YES - included\r\n\r\nA DDR 8th Anniversary Exclusive Release...!","torrent":{"xt":"urn:btih:e1497f817d18a9091b499586acc3222c07eb48cc","amp;dn":"Great+Grand+Masti+%282016%29+%7E2CD+DVDSCR+x264+AAC+-+V2+-DDR","amp;tr":["udp%3A%2F%2Ftracker.leechers-paradise.org%3A6969","udp%3A%2F%2Fzer0day.ch%3A1337","udp%3A%2F%2Fopen.demonii.com%3A1337","udp%3A%2F%2Ftracker.coppersurfer.tk%3A6969","udp%3A%2F%2Fexodus.desync.com%3A6969"],"infoHash":"e1497f817d18a9091b499586acc3222c07eb48cc","infoHashBuffer":{"type":"Buffer","data":[225,73,127,129,125,24,169,9,27,73,149,134,172,195,34,44,7,235,72,204]},"announce":[],"urlList":[]}}